<svg xmlns="http://www.w3.org/2000/svg" viewBox="0 0 256 256" role="img" aria-labelledby="t"><title id="t">Penguin reward critter</title><defs><linearGradient id="b" x2="0" y2="1"><stop stop-color="#34425c"/><stop offset="1" stop-color="#121827"/></linearGradient><radialGradient id="g"><stop stop-color="#8fe9ff" stop-opacity=".7"/><stop offset="1" stop-color="#10243a" stop-opacity="0"/></radialGradient></defs><rect width="256" height="256" rx="52" fill="#101a2b"/><circle cx="128" cy="128" r="112" fill="url(#g)"/><ellipse cx="128" cy="143" rx="74" ry="92" fill="url(#b)"/><ellipse cx="128" cy="154" rx="49" ry="66" fill="#f5f7ff"/><path d="M63 141 24 174l45 8M193 141l39 33-45 8" fill="#222d40" stroke="#0b111e" stroke-width="8" stroke-linejoin="round"/><circle cx="101" cy="104" r="10" fill="#fff"/><circle cx="155" cy="104" r="10" fill="#fff"/><circle cx="101" cy="104" r="4"/><circle cx="155" cy="104" r="4"/><path d="m111 121 34 0-17 16z" fill="#ffb84d"/><path d="M88 220H49l35-24M168 220h39l-35-24" fill="none" stroke="#ffb84d" stroke-width="12" stroke-linecap="round"/><path d="M82 67c26-20 66-24 94-3l-14 13H94z" fill="#315875"/><path d="M162 74h31" stroke="#b9f4ff" stroke-width="7" stroke-linecap="round"/></svg>
