<svg xmlns="http://www.w3.org/2000/svg" viewBox="0 0 256 256" role="img" aria-label="Panda Shield Guard">
<title>Panda Shield Guard — Harley's Studios</title>
<defs>
  <linearGradient id="bg" x1="0" y1="0" x2="1" y2="1"><stop stop-color="#203639"/><stop offset="1" stop-color="#111526"/></linearGradient>
  <linearGradient id="vest" x1="0" y1="0" x2="1" y2="1"><stop stop-color="#5e9b8b"/><stop offset="1" stop-color="#315e5a"/></linearGradient>
  <filter id="shadow" x="-30%" y="-30%" width="160%" height="170%"><feDropShadow dx="0" dy="7" stdDeviation="5" flood-color="#050817" flood-opacity=".65"/></filter>
</defs>
<rect x="5" y="5" width="246" height="246" rx="42" fill="url(#bg)" stroke="#7ef7d4" stroke-width="6"/>
<path d="M17 186C58 159 181 159 239 190v56H17z" fill="#17312f"/><path d="M205 23l22 10v18c0 15-10 26-22 31-12-5-22-16-22-31V33z" fill="#7ef7d4" opacity=".12"/>
<g filter="url(#shadow)">
  <rect x="86" y="174" width="25" height="39" rx="11" fill="#292b38"/><rect x="145" y="174" width="25" height="39" rx="11" fill="#292b38"/>
  <path d="M81 207h36v16H76c0-9 2-13 5-16zm58 0h36c4 3 6 7 6 16h-42z" fill="#272d3d"/>
  <ellipse cx="128" cy="155" rx="52" ry="55" fill="#f2f2ee"/>
  <path d="M82 139q46-31 92 0l-9 50H91z" fill="url(#vest)" stroke="#8ef5df" stroke-width="3"/><path d="M128 132v61" stroke="#244844" stroke-width="5"/>
  <path d="M108 148h40v29h-40z" fill="#294f4d"/><path d="M128 153l12 5v9c0 7-6 11-12 14-6-3-12-7-12-14v-9z" fill="#7ef7d4"/>
  <ellipse cx="79" cy="155" rx="16" ry="35" fill="#292b38" transform="rotate(24 79 155)"/><ellipse cx="177" cy="154" rx="16" ry="35" fill="#292b38" transform="rotate(-24 177 154)"/>
  <g transform="rotate(-8 170 164)"><rect x="143" y="151" width="75" height="22" rx="7" fill="#76d7c3"/><rect x="198" y="157" width="31" height="8" rx="4" fill="#1f2c3a"/><rect x="155" y="170" width="14" height="24" rx="4" fill="#303c4a"/><circle cx="180" cy="162" r="7" fill="#63dff5"/></g>
  <circle cx="87" cy="63" r="24" fill="#292b38"/><circle cx="169" cy="63" r="24" fill="#292b38"/>
  <circle cx="128" cy="95" r="54" fill="#f2f2ee" stroke="#fff" stroke-width="5"/>
  <ellipse cx="105" cy="94" rx="17" ry="23" fill="#292b38" transform="rotate(23 105 94)"/><ellipse cx="151" cy="94" rx="17" ry="23" fill="#292b38" transform="rotate(-23 151 94)"/>
  <ellipse cx="128" cy="117" rx="31" ry="22" fill="#fff"/><circle cx="108" cy="94" r="6" fill="#fff"/><circle cx="148" cy="94" r="6" fill="#fff"/><circle cx="108" cy="94" r="3" fill="#1f2233"/><circle cx="148" cy="94" r="3" fill="#1f2233"/>
  <path d="M121 111q7-7 14 0-2 11-7 11t-7-11z" fill="#292b38"/>
</g>
<text x="20" y="229" fill="#fff" font-family="Arial,sans-serif" font-size="17" font-weight="800">PANDA</text>
<text x="20" y="243" fill="#7ef7d4" font-family="Arial,sans-serif" font-size="9" font-weight="700" letter-spacing="1.4">SHIELD GUARD</text>
</svg>
