<svg xmlns="http://www.w3.org/2000/svg" viewBox="0 0 256 256" role="img" aria-labelledby="title desc"><title id="title">Arctic Fox reward critter</title><desc id="desc">A cute white arctic fox wearing a blue winter vest.</desc><defs><linearGradient id="fur" x1="0" y1="0" x2="1" y2="1"><stop stop-color="#ffffff"/><stop offset="1" stop-color="#d7e8f4"/></linearGradient><linearGradient id="vest" x1="0" y1="0" x2="0" y2="1"><stop stop-color="#79b9dc"/><stop offset="1" stop-color="#4f789f"/></linearGradient></defs><rect width="256" height="256" rx="52" fill="#17304b"/><path d="M52 93 76 31l39 44c9-4 18-6 28-6s20 2 29 6l37-44 23 63-20 20c7 14 11 31 11 50 0 50-39 80-95 80-55 0-95-30-95-80 0-19 4-36 12-51z" fill="url(#fur)" stroke="#a9c9dc" stroke-width="6" stroke-linejoin="round"/><path d="m70 83 10-29 20 25zM185 79l18-25 9 31z" fill="#a9c9dc"/><ellipse cx="128" cy="155" rx="49" ry="41" fill="#f8fbfd"/><circle cx="96" cy="126" r="10" fill="#20324a"/><circle cx="160" cy="126" r="10" fill="#20324a"/><circle cx="93" cy="122" r="3" fill="#fff"/><circle cx="157" cy="122" r="3" fill="#fff"/><path d="m116 151 12-7 13 7-13 12z" fill="#334963"/><path d="M108 174c14 10 27 10 41 0" fill="none" stroke="#829fb2" stroke-width="7" stroke-linecap="round"/><path d="M69 186c17-13 37-19 59-19 24 0 45 6 61 19l-12 48H81z" fill="url(#vest)"/><path d="M128 171v61" stroke="#d6f2ff" stroke-width="6"/><path d="M71 218 42 237m143-19 29 19" stroke="#e9f4fa" stroke-width="17" stroke-linecap="round"/><path d="M202 179c26 8 34 31 13 45-14 10-34 3-42-12 21 5 31-5 29-33z" fill="#eaf5fa" stroke="#a9c9dc" stroke-width="5"/></svg>
